<svg xmlns="http://www.w3.org/2000/svg" version="1.1" xmlns:xlink="http://www.w3.org/1999/xlink" xmlns:svgjs="http://svgjs.dev/svgjs" width="1500" height="1500" viewBox="0 0 1500 1500"><rect width="1500" height="1500" fill="#ffffff"></rect><g transform="matrix(0.6666666666666666,0,0,0.6666666666666666,249.78425655976667,249.78425655976673)"><svg viewBox="0 0 343 343" data-background-color="#ffffff" preserveAspectRatio="xMidYMid meet" height="1500" width="1500" xmlns="http://www.w3.org/2000/svg" xmlns:xlink="http://www.w3.org/1999/xlink"><g id="tight-bounds" transform="matrix(1,0,0,1,0.0740000000000407,0.07400000000001228)"><svg viewBox="0 0 342.85155851775386 342.85155851775386" height="342.85155851775386" width="342.85155851775386"><g><svg></svg></g><g><svg viewBox="0 0 342.85155851775386 342.85155851775386" height="342.85155851775386" width="342.85155851775386"><g><path d="M0 171.426c0-94.676 76.75-171.426 171.426-171.426 94.676 0 171.426 76.75 171.426 171.426 0 94.676-76.75 171.426-171.426 171.426-94.676 0-171.426-76.75-171.426-171.426zM171.426 339.945c93.071 0 168.52-75.449 168.519-168.519 0-93.071-75.449-168.52-168.519-168.52-93.071 0-168.52 75.449-168.52 168.52 0 93.071 75.449 168.52 168.52 168.519z" data-fill-palette-color="tertiary" fill="#000000" stroke="transparent"></path><ellipse rx="164.56874808852186" ry="164.56874808852186" cx="171.42577925887693" cy="171.42577925887693" fill="#000000" stroke="transparent" stroke-width="0" fill-opacity="1" data-fill-palette-color="tertiary"></ellipse></g><g transform="matrix(1,0,0,1,64.84655864529837,100.2132793654016)"><svg viewBox="0 0 213.1584412271571 142.42499978695065" height="142.42499978695065" width="213.1584412271571"><g><svg viewBox="0 0 213.1584412271571 142.42499978695065" height="142.42499978695065" width="213.1584412271571"><g><svg viewBox="0 0 213.1584412271571 142.42499978695065" height="142.42499978695065" width="213.1584412271571"><g transform="matrix(1,0,0,1,0,85.82661880468102)"><svg viewBox="0 0 213.1584412271571 56.598380982269624" height="56.598380982269624" width="213.1584412271571"><g id="textblocktransform"><svg viewBox="0 0 213.1584412271571 56.598380982269624" height="56.598380982269624" width="213.1584412271571" id="textblock"><g><svg viewBox="0 0 213.1584412271571 32.2254540367695" height="32.2254540367695" width="213.1584412271571"><g transform="matrix(1,0,0,1,0,0)"><svg width="213.1584412271571" viewBox="2 -34.25 226.53 34.25" height="32.2254540367695" data-palette-color="#ffffff"><path d="M2-8.45L2.2-8.6Q4.4-7.85 7.03-7.43 9.65-7 12.25-7L12.25-7Q15.8-7 17.53-7.33 19.25-7.65 19.8-8.35 20.35-9.05 20.35-10.15L20.35-10.15Q20.35-11.1 19.95-11.65 19.55-12.2 18.4-12.53 17.25-12.85 15-13.05L15-13.05 11.7-13.35Q8-13.7 5.88-14.9 3.75-16.1 2.88-18.13 2-20.15 2-23L2-23Q2-26.4 3.38-28.5 4.75-30.6 7.85-31.58 10.95-32.55 16.1-32.55L16.1-32.55Q22.8-32.55 27.15-30.8L27.15-30.8 27-24 26.85-23.8Q21.9-25.55 16.5-25.55L16.5-25.55Q13.9-25.55 12.5-25.28 11.1-25 10.55-24.4 10-23.8 10-22.7L10-22.7Q10-21.6 10.38-21.05 10.75-20.5 11.9-20.23 13.05-19.95 15.25-19.7L15.25-19.7 18.4-19.35Q22.4-18.9 24.55-17.75 26.7-16.6 27.53-14.68 28.35-12.75 28.35-10L28.35-10Q28.35-6.65 26.93-4.42 25.5-2.2 22.3-1.1 19.1 0 13.75 0L13.75 0Q10.25 0 7.45-0.38 4.65-0.75 2-1.4L2-1.4 2-8.45ZM33.85-7.75L33.85-7.75 33.85-18.25 30.85-18.25 30.85-24.75 34.6-24.75 36.1-30.7 41.85-30.7 41.85-24.75 47.3-24.75 47.3-18.25 41.85-18.25 41.85-9.5Q41.85-8.1 42.2-7.58 42.55-7.05 43.8-7.05L43.8-7.05Q44.6-7.05 45.5-7.13 46.4-7.2 47.3-7.3L47.3-7.3 47.45-7.2 47.45-0.7Q45.05 0 41.1 0L41.1 0Q37.15 0 35.5-1.8 33.85-3.6 33.85-7.75ZM61.2-25.05L61.2-25.05Q66-25.05 68.95-24.05 71.9-23.05 73.27-20.38 74.65-17.7 74.65-12.65L74.65-12.65 74.65-0.45 67.4-0.45 67.15-2.75 67-2.75Q66.05-1.5 64.05-0.75 62.05 0 58.85 0L58.85 0Q50.2 0 50.2-8.1L50.2-8.1Q50.2-11.55 52.47-13.53 54.75-15.5 59.65-15.5L59.65-15.5 67.05-15.5Q66.7-17.6 65.25-18.32 63.8-19.05 60.3-19.05L60.3-19.05Q58.1-19.05 55.97-18.73 53.85-18.4 52.25-18L52.25-18 52.1-18.1 52.15-23.9Q53.15-24.2 54.7-24.48 56.25-24.75 57.97-24.9 59.7-25.05 61.2-25.05ZM60.9-5.9L60.9-5.9Q64-5.9 65.55-6.68 67.1-7.45 67.15-9.15L67.15-9.15 67.15-10.4 61.5-10.4Q59.3-10.4 58.42-9.78 57.55-9.15 57.55-8.1L57.55-8.1Q57.55-6.85 58.45-6.38 59.35-5.9 60.9-5.9ZM80.39-7.75L80.39-7.75 80.39-18.25 77.39-18.25 77.39-24.75 81.14-24.75 82.64-30.7 88.39-30.7 88.39-24.75 93.84-24.75 93.84-18.25 88.39-18.25 88.39-9.5Q88.39-8.1 88.74-7.58 89.09-7.05 90.34-7.05L90.34-7.05Q91.14-7.05 92.04-7.13 92.94-7.2 93.84-7.3L93.84-7.3 93.99-7.2 93.99-0.7Q91.59 0 87.64 0L87.64 0Q83.69 0 82.04-1.8 80.39-3.6 80.39-7.75ZM97.49-8.45L97.69-8.6Q99.89-7.85 102.52-7.43 105.14-7 107.74-7L107.74-7Q111.29-7 113.02-7.33 114.74-7.65 115.29-8.35 115.84-9.05 115.84-10.15L115.84-10.15Q115.84-11.1 115.44-11.65 115.04-12.2 113.89-12.53 112.74-12.85 110.49-13.05L110.49-13.05 107.19-13.35Q103.49-13.7 101.37-14.9 99.24-16.1 98.37-18.13 97.49-20.15 97.49-23L97.49-23Q97.49-26.4 98.87-28.5 100.24-30.6 103.34-31.58 106.44-32.55 111.59-32.55L111.59-32.55Q118.29-32.55 122.64-30.8L122.64-30.8 122.49-24 122.34-23.8Q117.39-25.55 111.99-25.55L111.99-25.55Q109.39-25.55 107.99-25.28 106.59-25 106.04-24.4 105.49-23.8 105.49-22.7L105.49-22.7Q105.49-21.6 105.87-21.05 106.24-20.5 107.39-20.23 108.54-19.95 110.74-19.7L110.74-19.7 113.89-19.35Q117.89-18.9 120.04-17.75 122.19-16.6 123.02-14.68 123.84-12.75 123.84-10L123.84-10Q123.84-6.65 122.42-4.42 120.99-2.2 117.79-1.1 114.59 0 109.24 0L109.24 0Q105.74 0 102.94-0.38 100.14-0.75 97.49-1.4L97.49-1.4 97.49-8.45ZM144.34-13.6L144.24-13.6Q143.54-10.15 142.79-6.85 142.04-3.55 141.19-0.45L141.19-0.45 132.54-0.45 126.34-24.8 134.64-24.8Q135.34-21.05 136.04-17 136.74-12.95 137.29-9.05L137.29-9.05 137.39-9.05Q138.14-12.95 139.01-17 139.89-21.05 140.79-24.8L140.79-24.8 147.79-24.8Q148.69-21.05 149.56-17 150.44-12.95 151.19-9.05L151.19-9.05 151.29-9.05Q151.84-12.95 152.54-17 153.24-21.05 153.94-24.8L153.94-24.8 162.34-24.8 156.14-0.45 147.49-0.45Q146.69-3.55 145.86-6.85 145.04-10.15 144.34-13.6L144.34-13.6ZM173.39-33.85L173.39-33.85Q173.53-32.05 173.53-30.85L173.53-30.85Q173.53-30.15 173.51-29.43 173.49-28.7 173.39-27.8L173.39-27.8Q172.34-27.6 171.34-27.5 170.34-27.4 169.34-27.4L169.34-27.4Q168.39-27.4 167.41-27.5 166.44-27.6 165.44-27.8L165.44-27.8Q165.34-28.65 165.28-29.38 165.24-30.1 165.24-30.8L165.24-30.8Q165.24-31.45 165.28-32.2 165.34-32.95 165.44-33.85L165.44-33.85Q166.44-34.1 167.46-34.18 168.49-34.25 169.49-34.25L169.49-34.25Q170.44-34.25 171.41-34.18 172.39-34.1 173.39-33.85ZM173.39-24.8L173.39-0.45 165.39-0.45 165.39-24.8 173.39-24.8ZM177.68-7.25L177.83-7.35Q181.73-6.25 186.48-6.25L186.48-6.25Q188.78-6.25 189.93-6.4 191.08-6.55 191.48-6.9 191.88-7.25 191.88-7.85L191.88-7.85Q191.88-8.7 191.26-8.9 190.63-9.1 188.78-9.45L188.78-9.45 184.83-10.2Q181.03-10.95 179.36-12.58 177.68-14.2 177.68-17.45L177.68-17.45Q177.68-21.85 180.31-23.45 182.93-25.05 188.68-25.05L188.68-25.05Q192.13-25.05 194.76-24.68 197.38-24.3 199.13-23.75L199.13-23.75 199.03-17.7 198.88-17.55Q194.83-18.85 190.03-18.85L190.03-18.85Q187.68-18.85 186.76-18.53 185.83-18.2 185.83-17.25L185.83-17.25Q185.83-16.75 186.11-16.45 186.38-16.15 187.38-15.88 188.38-15.6 190.53-15.2L190.53-15.2 194.18-14.5Q197.23-13.85 198.68-12.35 200.13-10.85 200.13-7.6L200.13-7.6Q200.13-4.75 199.08-3.08 198.03-1.4 195.56-0.7 193.08 0 188.73 0L188.73 0Q185.43 0 182.66-0.33 179.88-0.65 177.68-1.1L177.68-1.1 177.68-7.25ZM212.38-12.95L212.38-0.45 204.38-0.45 204.38-34.05 212.38-34.05 212.38-20.35 212.53-20.35Q213.23-22.6 215.1-23.83 216.98-25.05 220.03-25.05L220.03-25.05Q222.93-25.05 224.81-24.1 226.68-23.15 227.6-20.78 228.53-18.4 228.53-14.1L228.53-14.1 228.53-0.45 220.53-0.45 220.48-12.55Q220.48-15.35 219.63-16.55 218.78-17.75 216.43-17.75L216.43-17.75Q214.33-17.75 213.38-16.65 212.43-15.55 212.38-12.95L212.38-12.95Z" opacity="1" transform="matrix(1,0,0,1,0,0)" fill="#ffffff" class="wordmark-text-0" data-fill-palette-color="quaternary" id="text-0"></path></svg></g></svg></g><g transform="matrix(1,0,0,1,0,39.833110323953896)"><svg viewBox="0 0 213.1584412271571 16.76527065831573" height="16.76527065831573" width="213.1584412271571"><g transform="matrix(1,0,0,1,0,0)"><svg width="213.1584412271571" viewBox="1.05 -31.05 471.65 37.1" height="16.76527065831573" data-palette-color="#ffffff"><path d="M15.7-10.9L15.7-10.9 12.15-10.9Q10.75-13 9.22-15.33 7.7-17.65 6.23-20.05 4.75-22.45 3.43-24.78 2.1-27.1 1.05-29.1L1.05-29.1Q1.25-29.65 1.8-30.18 2.35-30.7 3.25-30.7L3.25-30.7Q4.2-30.7 4.73-30.2 5.25-29.7 5.8-28.7L5.8-28.7Q6.45-27.55 7.28-26.13 8.1-24.7 9-23.13 9.9-21.55 10.8-20 11.7-18.45 12.48-17.1 13.25-15.75 13.85-14.75L13.85-14.75 14.05-14.75Q15.8-17.65 17.25-20.25 18.7-22.85 20.05-25.35 21.4-27.85 22.7-30.35L22.7-30.35Q23-30.55 23.45-30.63 23.9-30.7 24.25-30.7L24.25-30.7Q25.2-30.7 25.68-30.25 26.15-29.8 26.15-29L26.15-29Q26.15-28.5 25.38-26.88 24.6-25.25 23.2-22.83 21.8-20.4 19.9-17.35 18-14.3 15.7-10.9ZM11.9-1.6L11.9-12.85 15.95-12.85 15.95-0.1Q15.7 0 15.18 0.13 14.65 0.25 14.1 0.25L14.1 0.25Q13 0.25 12.45-0.2 11.9-0.65 11.9-1.6L11.9-1.6ZM52.7-11.55L52.7-11.55Q52.7-7.85 51.3-5.1 49.9-2.35 47.35-0.85 44.8 0.65 41.35 0.65L41.35 0.65Q37.9 0.65 35.32-0.85 32.75-2.35 31.35-5.1 29.95-7.85 29.95-11.55L29.95-11.55Q29.95-15.3 31.37-18.03 32.8-20.75 35.37-22.25 37.95-23.75 41.35-23.75L41.35-23.75Q44.75-23.75 47.3-22.25 49.85-20.75 51.27-18.03 52.7-15.3 52.7-11.55ZM41.35-20.45L41.35-20.45Q38-20.45 36.02-18.07 34.05-15.7 34.05-11.55L34.05-11.55Q34.05-7.35 35.97-5 37.9-2.65 41.35-2.65L41.35-2.65Q44.75-2.65 46.67-5.03 48.6-7.4 48.6-11.55L48.6-11.55Q48.6-15.7 46.67-18.07 44.75-20.45 41.35-20.45ZM58.9-8.45L58.9-8.45 58.9-13 62.9-13 62.9-8.65Q62.9-5.45 64.59-4.05 66.3-2.65 69.3-2.65L69.3-2.65Q71.3-2.65 72.7-3.08 74.09-3.5 74.9-3.95L74.9-3.95 74.9-13 78.9-13 78.9-4.1Q78.9-3.05 78.62-2.43 78.34-1.8 77.3-1.2L77.3-1.2Q76.2-0.55 74.15 0.05 72.09 0.65 69.25 0.65L69.25 0.65Q65.95 0.65 63.62-0.33 61.3-1.3 60.1-3.33 58.9-5.35 58.9-8.45ZM78.9-21.5L78.9-10.4 74.9-10.4 74.9-23Q75.15-23.1 75.67-23.23 76.2-23.35 76.75-23.35L76.75-23.35Q77.84-23.35 78.37-22.93 78.9-22.5 78.9-21.5L78.9-21.5ZM62.9-21.5L62.9-10.4 58.9-10.4 58.9-23Q59.15-23.1 59.67-23.23 60.2-23.35 60.8-23.35L60.8-23.35Q61.85-23.35 62.37-22.93 62.9-22.5 62.9-21.5L62.9-21.5ZM90.39-18.8L90.39-18.8 90.39-10.9 86.39-10.9 86.39-18.5Q86.39-19.65 86.82-20.33 87.24-21 88.24-21.65L88.24-21.65Q89.54-22.5 91.79-23.13 94.04-23.75 96.79-23.75L96.79-23.75Q100.79-23.75 100.79-21.75L100.79-21.75Q100.79-21.25 100.64-20.83 100.49-20.4 100.24-20.1L100.24-20.1Q99.74-20.2 98.94-20.3 98.14-20.4 97.34-20.4L97.34-20.4Q95.04-20.4 93.29-19.93 91.54-19.45 90.39-18.8ZM86.39-1.55L86.39-13.2 90.39-12.6 90.39-0.1Q90.14 0 89.64 0.13 89.14 0.25 88.54 0.25L88.54 0.25Q87.49 0.25 86.94-0.18 86.39-0.6 86.39-1.55L86.39-1.55ZM140.24-14.35L140.24-14.35 140.24-3.5Q140.24-2.6 139.71-1.98 139.19-1.35 138.14-0.85L138.14-0.85Q136.89-0.2 134.69 0.23 132.49 0.65 130.24 0.65L130.24 0.65Q125.59 0.65 122.01-1.05 118.44-2.75 116.44-6.25 114.44-9.75 114.44-15.15L114.44-15.15Q114.44-20.5 116.51-24.03 118.59-27.55 122.04-29.3 125.49-31.05 129.59-31.05L129.59-31.05Q132.44-31.05 134.59-30.45 136.74-29.85 137.94-28.95 139.14-28.05 139.14-27.1L139.14-27.1Q139.14-26.45 138.74-25.93 138.34-25.4 137.79-25.15L137.79-25.15Q136.44-26.05 134.59-26.83 132.74-27.6 129.84-27.6L129.84-27.6Q126.69-27.6 124.14-26.2 121.59-24.8 120.11-22.03 118.64-19.25 118.64-15.15L118.64-15.15Q118.64-10.85 120.16-8.13 121.69-5.4 124.34-4.1 126.99-2.8 130.29-2.8L130.29-2.8Q132.09-2.8 133.69-3.1 135.29-3.4 136.19-3.85L136.19-3.85 136.19-13.05 128.64-13.05Q128.49-13.3 128.34-13.73 128.19-14.15 128.19-14.65L128.19-14.65Q128.19-15.5 128.59-15.98 128.99-16.45 129.74-16.45L129.74-16.45 138.09-16.45Q138.99-16.45 139.61-15.88 140.24-15.3 140.24-14.35ZM155.69 0.7L155.69 0.7Q150.99 0.7 148.41-1.15 145.84-3 145.84-6.5L145.84-6.5Q145.84-9.75 148.01-11.48 150.19-13.2 154.03-13.55L154.03-13.55 161.13-14.25 161.13-15.65Q161.13-18.15 159.63-19.3 158.13-20.45 155.59-20.45L155.59-20.45Q153.53-20.45 151.66-19.85 149.78-19.25 148.34-18.5L148.34-18.5Q147.94-18.85 147.61-19.33 147.28-19.8 147.28-20.3L147.28-20.3Q147.28-21.6 148.74-22.3L148.74-22.3Q150.09-23 151.86-23.38 153.63-23.75 155.63-23.75L155.63-23.75Q159.99-23.75 162.53-21.8 165.09-19.85 165.09-15.65L165.09-15.65 165.09-3.8Q165.09-2.7 164.66-2.13 164.24-1.55 163.38-1.05L163.38-1.05Q162.19-0.4 160.19 0.15 158.19 0.7 155.69 0.7ZM155.69-2.6L155.69-2.6Q157.78-2.6 159.16-3.03 160.53-3.45 161.13-3.85L161.13-3.85 161.13-11.1 154.94-10.45Q152.34-10.25 151.09-9.3 149.84-8.35 149.84-6.55L149.84-6.55Q149.84-4.7 151.31-3.65 152.78-2.6 155.69-2.6ZM191.03-16L191.03-16 191.03-10.25 187.03-10.25 187.03-15.7Q187.03-18.15 185.61-19.3 184.18-20.45 181.83-20.45L181.83-20.45Q180.28-20.45 178.83-19.95 177.38-19.45 176.38-18.8L176.38-18.8 176.38-10.25 172.38-10.25 172.38-18.6Q172.38-19.6 172.81-20.3 173.23-21 174.28-21.65L174.28-21.65Q175.63-22.5 177.71-23.13 179.78-23.75 181.88-23.75L181.88-23.75Q184.43-23.75 186.38-22.98 188.33-22.2 189.28-20.85L189.28-20.85Q189.58-20.55 189.78-20.3 189.98-20.05 190.18-19.65L190.18-19.65Q190.53-19.05 190.78-18.1 191.03-17.15 191.03-16ZM205.68-15.9L205.68-15.9 205.68-10.25 201.68-10.25 201.68-15.7Q201.68-18.15 200.28-19.3 198.88-20.45 196.53-20.45L196.53-20.45Q194.78-20.45 193.16-19.73 191.53-19 190.23-17.65L190.23-17.65 188.63-20.55Q189.93-21.85 192.03-22.8 194.13-23.75 196.83-23.75L196.83-23.75Q199.53-23.75 201.51-22.9 203.48-22.05 204.58-20.3 205.68-18.55 205.68-15.9ZM172.38-1.55L172.38-12.9 176.38-12.9 176.38-0.1Q176.13 0 175.63 0.13 175.13 0.25 174.53 0.25L174.53 0.25Q173.48 0.25 172.93-0.18 172.38-0.6 172.38-1.55L172.38-1.55ZM187.03-1.55L187.03-12.9 191.03-12.9 191.03-0.1Q190.78 0 190.26 0.13 189.73 0.25 189.18 0.25L189.18 0.25Q188.08 0.25 187.56-0.18 187.03-0.6 187.03-1.55L187.03-1.55ZM201.68-1.55L201.68-12.9 205.68-12.9 205.68-0.1Q205.43 0 204.91 0.13 204.38 0.25 203.83 0.25L203.83 0.25Q202.73 0.25 202.21-0.18 201.68-0.6 201.68-1.55L201.68-1.55ZM231.43-11.35L214.63-9 214.43-12.15 229.53-14.2Q229.33-16.95 227.63-18.73 225.93-20.5 222.93-20.5L222.93-20.5Q219.83-20.5 217.81-18.28 215.78-16.05 215.78-11.9L215.78-11.9 215.78-10.8Q216.13-6.8 218.41-4.73 220.68-2.65 224.63-2.65L224.63-2.65Q226.73-2.65 228.43-3.35 230.13-4.05 231.13-4.85L231.13-4.85Q231.68-4.5 232-4.03 232.33-3.55 232.33-2.95L232.33-2.95Q232.33-2 231.25-1.18 230.18-0.35 228.41 0.15 226.63 0.65 224.43 0.65L224.43 0.65Q220.58 0.65 217.75-0.75 214.93-2.15 213.41-4.93 211.88-7.7 211.88-11.7L211.88-11.7Q211.88-14.55 212.71-16.78 213.53-19 215-20.55 216.48-22.1 218.53-22.93 220.58-23.75 222.98-23.75L222.98-23.75Q226.03-23.75 228.36-22.45 230.68-21.15 232-18.82 233.33-16.5 233.33-13.5L233.33-13.5Q233.33-12.4 232.83-11.93 232.33-11.45 231.43-11.35L231.43-11.35ZM238.78 4.7L238.78 4.7Q237.98 6.05 236.83 6.05L236.83 6.05Q235.73 6.05 235.03 5.2L235.03 5.2Q235.48 3.9 236.05 2.13 236.63 0.35 237.13-1.5 237.63-3.35 237.88-4.7L237.88-4.7Q238.28-4.9 238.75-5.03 239.23-5.15 239.78-5.15L239.78-5.15Q240.68-5.15 241.18-4.73 241.68-4.3 241.68-3.3L241.68-3.3Q241.68-2.2 241.15-0.58 240.63 1.05 239.93 2.53 239.23 4 238.78 4.7ZM268.32-10.9L268.32-10.9 264.77-10.9Q263.37-13 261.85-15.33 260.32-17.65 258.85-20.05 257.37-22.45 256.05-24.78 254.72-27.1 253.67-29.1L253.67-29.1Q253.87-29.65 254.42-30.18 254.97-30.7 255.87-30.7L255.87-30.7Q256.82-30.7 257.35-30.2 257.87-29.7 258.42-28.7L258.42-28.7Q259.07-27.55 259.9-26.13 260.72-24.7 261.62-23.13 262.52-21.55 263.42-20 264.32-18.45 265.1-17.1 265.87-15.75 266.47-14.75L266.47-14.75 266.67-14.75Q268.42-17.65 269.87-20.25 271.32-22.85 272.67-25.35 274.02-27.85 275.32-30.35L275.32-30.35Q275.62-30.55 276.07-30.63 276.52-30.7 276.87-30.7L276.87-30.7Q277.82-30.7 278.3-30.25 278.77-29.8 278.77-29L278.77-29Q278.77-28.5 278-26.88 277.22-25.25 275.82-22.83 274.42-20.4 272.52-17.35 270.62-14.3 268.32-10.9ZM264.52-1.6L264.52-12.85 268.57-12.85 268.57-0.1Q268.32 0 267.8 0.13 267.27 0.25 266.72 0.25L266.72 0.25Q265.62 0.25 265.07-0.2 264.52-0.65 264.52-1.6L264.52-1.6ZM305.32-11.55L305.32-11.55Q305.32-7.85 303.92-5.1 302.52-2.35 299.97-0.85 297.42 0.65 293.97 0.65L293.97 0.65Q290.52 0.65 287.94-0.85 285.37-2.35 283.97-5.1 282.57-7.85 282.57-11.55L282.57-11.55Q282.57-15.3 284-18.03 285.42-20.75 288-22.25 290.57-23.75 293.97-23.75L293.97-23.75Q297.37-23.75 299.92-22.25 302.47-20.75 303.89-18.03 305.32-15.3 305.32-11.55ZM293.97-20.45L293.97-20.45Q290.62-20.45 288.64-18.07 286.67-15.7 286.67-11.55L286.67-11.55Q286.67-7.35 288.6-5 290.52-2.65 293.97-2.65L293.97-2.65Q297.37-2.65 299.3-5.03 301.22-7.4 301.22-11.55L301.22-11.55Q301.22-15.7 299.3-18.07 297.37-20.45 293.97-20.45ZM311.52-8.45L311.52-8.45 311.52-13 315.52-13 315.52-8.65Q315.52-5.45 317.22-4.05 318.92-2.65 321.92-2.65L321.92-2.65Q323.92-2.65 325.32-3.08 326.72-3.5 327.52-3.95L327.52-3.95 327.52-13 331.52-13 331.52-4.1Q331.52-3.05 331.24-2.43 330.97-1.8 329.92-1.2L329.92-1.2Q328.82-0.55 326.77 0.05 324.72 0.65 321.87 0.65L321.87 0.65Q318.57 0.65 316.24-0.33 313.92-1.3 312.72-3.33 311.52-5.35 311.52-8.45ZM331.52-21.5L331.52-10.4 327.52-10.4 327.52-23Q327.77-23.1 328.29-23.23 328.82-23.35 329.37-23.35L329.37-23.35Q330.47-23.35 330.99-22.93 331.52-22.5 331.52-21.5L331.52-21.5ZM315.52-21.5L315.52-10.4 311.52-10.4 311.52-23Q311.77-23.1 312.29-23.23 312.82-23.35 313.42-23.35L313.42-23.35Q314.47-23.35 314.99-22.93 315.52-22.5 315.52-21.5L315.52-21.5ZM343.01-18.8L343.01-18.8 343.01-10.9 339.01-10.9 339.01-18.5Q339.01-19.65 339.44-20.33 339.87-21 340.87-21.65L340.87-21.65Q342.16-22.5 344.41-23.13 346.66-23.75 349.41-23.75L349.41-23.75Q353.41-23.75 353.41-21.75L353.41-21.75Q353.41-21.25 353.26-20.83 353.12-20.4 352.87-20.1L352.87-20.1Q352.37-20.2 351.56-20.3 350.76-20.4 349.96-20.4L349.96-20.4Q347.66-20.4 345.91-19.93 344.16-19.45 343.01-18.8ZM339.01-1.55L339.01-13.2 343.01-12.6 343.01-0.1Q342.76 0 342.26 0.13 341.76 0.25 341.16 0.25L341.16 0.25Q340.12 0.25 339.56-0.18 339.01-0.6 339.01-1.55L339.01-1.55ZM377.21-2.75L377.21-2.75Q380.56-2.75 382.29-4.28 384.01-5.8 384.01-8.2L384.01-8.2Q384.01-10.25 382.69-11.6 381.36-12.95 378.51-13.75L378.51-13.75 374.16-15.05Q372.06-15.7 370.51-16.73 368.96-17.75 368.13-19.28 367.31-20.8 367.31-22.85L367.31-22.85Q367.31-26.7 370.11-28.88 372.91-31.05 377.56-31.05L377.56-31.05Q380.26-31.05 382.38-30.48 384.51-29.9 385.74-29 386.96-28.1 386.96-27.1L386.96-27.1Q386.96-26.45 386.61-25.93 386.26-25.4 385.71-25.1L385.71-25.1Q384.46-26.1 382.34-26.85 380.21-27.6 377.71-27.6L377.71-27.6Q374.81-27.6 373.11-26.33 371.41-25.05 371.41-22.85L371.41-22.85Q371.41-21.1 372.63-20 373.86-18.9 376.61-18.1L376.61-18.1 379.66-17.2Q383.61-16.1 385.88-14 388.16-11.9 388.16-8.2L388.16-8.2Q388.16-4.25 385.29-1.8 382.41 0.65 377.21 0.65L377.21 0.65Q374.16 0.65 371.88-0.03 369.61-0.7 368.34-1.73 367.06-2.75 367.06-3.75L367.06-3.75Q367.06-4.6 367.59-5.18 368.11-5.75 368.81-6L368.81-6Q369.96-4.9 372.06-3.83 374.16-2.75 377.21-2.75ZM394.31-6.05L394.31-13.2 398.31-13.2 398.31-6.3Q398.31-4.3 399.46-3.48 400.61-2.65 402.61-2.65L402.61-2.65Q403.46-2.65 404.51-2.95 405.56-3.25 406.26-3.65L406.26-3.65Q406.56-3.35 406.81-2.9 407.06-2.45 407.06-1.85L407.06-1.85Q407.06-0.75 405.76-0.05 404.46 0.65 402.16 0.65L402.16 0.65Q398.66 0.65 396.48-0.9 394.31-2.45 394.31-6.05L394.31-6.05ZM405.46-19.3L396.36-19.3 396.36-22.6 406.51-22.6Q406.66-22.4 406.81-21.95 406.96-21.5 406.96-21L406.96-21Q406.96-20.2 406.56-19.75 406.16-19.3 405.46-19.3L405.46-19.3ZM398.31-28.35L398.31-11.7 394.31-11.7 394.31-29.8Q394.56-29.9 395.08-30.03 395.61-30.15 396.21-30.15L396.21-30.15Q397.26-30.15 397.78-29.73 398.31-29.3 398.31-28.35L398.31-28.35ZM421.11 0.7L421.11 0.7Q416.41 0.7 413.83-1.15 411.25-3 411.25-6.5L411.25-6.5Q411.25-9.75 413.43-11.48 415.61-13.2 419.46-13.55L419.46-13.55 426.56-14.25 426.56-15.65Q426.56-18.15 425.06-19.3 423.56-20.45 421-20.45L421-20.45Q418.96-20.45 417.08-19.85 415.21-19.25 413.75-18.5L413.75-18.5Q413.36-18.85 413.03-19.33 412.71-19.8 412.71-20.3L412.71-20.3Q412.71-21.6 414.16-22.3L414.16-22.3Q415.5-23 417.28-23.38 419.06-23.75 421.06-23.75L421.06-23.75Q425.41-23.75 427.96-21.8 430.5-19.85 430.5-15.65L430.5-15.65 430.5-3.8Q430.5-2.7 430.08-2.13 429.66-1.55 428.81-1.05L428.81-1.05Q427.61-0.4 425.61 0.15 423.61 0.7 421.11 0.7ZM421.11-2.6L421.11-2.6Q423.21-2.6 424.58-3.03 425.96-3.45 426.56-3.85L426.56-3.85 426.56-11.1 420.36-10.45Q417.75-10.25 416.5-9.3 415.25-8.35 415.25-6.55L415.25-6.55Q415.25-4.7 416.73-3.65 418.21-2.6 421.11-2.6ZM437.85-6.05L437.85-13.2 441.85-13.2 441.85-6.3Q441.85-4.3 443-3.48 444.15-2.65 446.15-2.65L446.15-2.65Q447-2.65 448.05-2.95 449.1-3.25 449.8-3.65L449.8-3.65Q450.1-3.35 450.35-2.9 450.6-2.45 450.6-1.85L450.6-1.85Q450.6-0.75 449.3-0.05 448 0.65 445.7 0.65L445.7 0.65Q442.2 0.65 440.03-0.9 437.85-2.45 437.85-6.05L437.85-6.05ZM449-19.3L439.9-19.3 439.9-22.6 450.05-22.6Q450.2-22.4 450.35-21.95 450.5-21.5 450.5-21L450.5-21Q450.5-20.2 450.1-19.75 449.7-19.3 449-19.3L449-19.3ZM441.85-28.35L441.85-11.7 437.85-11.7 437.85-29.8Q438.1-29.9 438.63-30.03 439.15-30.15 439.75-30.15L439.75-30.15Q440.8-30.15 441.33-29.73 441.85-29.3 441.85-28.35L441.85-28.35ZM472.7-6.15L472.7-6.15Q472.7-2.95 470.35-1.15 468 0.65 463.55 0.65L463.55 0.65Q459.75 0.65 457.35-0.53 454.95-1.7 454.95-3.1L454.95-3.1Q454.95-3.7 455.28-4.28 455.6-4.85 456.25-5.2L456.25-5.2Q457.6-4.25 459.4-3.45 461.2-2.65 463.5-2.65L463.5-2.65Q468.7-2.65 468.7-6.15L468.7-6.15Q468.7-7.6 467.83-8.53 466.95-9.45 465.25-9.85L465.25-9.85 461.1-10.95Q458.05-11.7 456.65-13.28 455.25-14.85 455.25-17.2L455.25-17.2Q455.25-19.85 457.4-21.8 459.55-23.75 463.95-23.75L463.95-23.75Q466.3-23.75 468.05-23.28 469.8-22.8 470.78-22.03 471.75-21.25 471.75-20.35L471.75-20.35Q471.75-19.7 471.43-19.2 471.1-18.7 470.55-18.45L470.55-18.45Q469.95-18.85 469.03-19.33 468.1-19.8 466.85-20.13 465.6-20.45 464.1-20.45L464.1-20.45Q461.9-20.45 460.55-19.6 459.2-18.75 459.2-17.2L459.2-17.2Q459.2-16.1 459.98-15.28 460.75-14.45 462.45-14.05L462.45-14.05 465.9-13.2Q469.3-12.4 471-10.68 472.7-8.95 472.7-6.15Z" opacity="1" transform="matrix(1,0,0,1,0,0)" fill="#ffffff" class="slogan-text-1" data-fill-palette-color="quaternary" id="text-1"></path></svg></g></svg></g></svg></g></svg></g><g transform="matrix(1,0,0,1,67.47013044573193,0)"><svg viewBox="0 0 78.21818033569326 78.21896251749662" height="78.21896251749662" width="78.21818033569326"><g><svg version="1.1" xmlns="http://www.w3.org/2000/svg" xmlns:xlink="http://www.w3.org/1999/xlink" x="0" y="0" viewBox="0 0 100 100.001" enable-background="new 0 0 100 100.001" xml:space="preserve" id="icon-0" width="78.21818033569326" height="78.21896251749662" class="icon-icon-0" data-fill-palette-color="quaternary"><rect x="29.412" y="29.413" width="41.178" height="23.53" fill="#ffffff" data-fill-palette-color="quaternary"></rect><path d="M73.53 0.001H26.471V0L0 23.53V70.589C0 73.53 2.941 76.472 5.882 76.472H26.838L38.235 97.061C39.87 100.001 41.176 100.001 44.118 100.001H55.882C58.824 100.001 60.131 100.001 61.766 97.061L73.162 76.472H94.118C97.06 76.472 100 73.531 100 70.589V23.53zM63.972 82.354H58.825V88.239H60.846L58.825 91.914V88.239H52.943V94.12H47.059V88.239H41.177V91.914L39.156 88.239H41.177V82.354H36.03L32.721 76.472H41.177V82.354H47.059V76.472H52.943V82.354H58.825V76.472H67.281zM76.471 58.825H23.53V23.53H76.471z" fill="#ffffff" data-fill-palette-color="quaternary"></path><rect x="47.059" y="82.354" width="5.884" height="5.883" fill="#ffffff" data-fill-palette-color="quaternary"></rect></svg></g></svg></g><g></g></svg></g></svg></g></svg></g></svg></g><defs></defs></svg><rect width="342.85155851775386" height="342.85155851775386" fill="none" stroke="none" visibility="hidden"></rect></g></svg></g></svg>